<svg id="Layer_1" data-name="Layer 1" xmlns="http://www.w3.org/2000/svg" viewBox="0 0 523.79 577.93"><defs><style>.cls-1{fill:#010101;}</style></defs><title>logo</title><path class="cls-1" d="M99.83,168.88A44.39,44.39,0,0,1,112,157.4a55.19,55.19,0,0,1,15.38-7,45.21,45.21,0,0,1,17.06-1.52,32,32,0,0,1,15.83,6,98.67,98.67,0,0,0-15.87.34,92.82,92.82,0,0,0-14.88,2.94c-4.89,1.35-9.75,3-14.64,4.89S105.08,166.86,99.83,168.88Z" transform="translate(-38.14 -9.97)"/><path class="cls-1" d="M182.31,194.59a95,95,0,0,1-21.81,5.27,90,90,0,0,1-22.6-.35,95.47,95.47,0,0,1-32.28-10.77c-1.68-.91-3.33-1.9-5-2.92a56.54,56.54,0,0,1-4.81-3.35l3.75-3a130.89,130.89,0,0,1,6.1,14.43,148.3,148.3,0,0,1,4.4,15,105.16,105.16,0,0,1,2.83,31.36c-.82,10.59-3.82,21.33-9.75,30.52-.72,1.15-1.53,2.21-2.3,3.32l-2.15,3.08q-2.14,3.12-4.25,6.29c-2.78,4.23-5.55,8.48-8.24,12.78A403,403,0,0,0,57.62,349.7,168,168,0,0,0,48,378a80.88,80.88,0,0,0-2.11,14.45,42.83,42.83,0,0,0,1.39,13.89l.11.38,0,.37c0,.26.08.7.15,1.08l.2,1.21c.15.8.32,1.62.51,2.43.38,1.63.85,3.25,1.35,4.86a75.93,75.93,0,0,0,3.77,9.45,82.73,82.73,0,0,0,11.09,17.15,88.93,88.93,0,0,0,14.89,14.18A108.91,108.91,0,0,0,97,468.31l.19.09.13.09c1.61,1.06,3.5,2.13,5.34,3.1s3.74,1.92,5.67,2.78a112.72,112.72,0,0,0,11.82,4.57,118.23,118.23,0,0,0,24.87,5.23,114.18,114.18,0,0,0,25.53-.46,120.06,120.06,0,0,0,25-6.31,107.21,107.21,0,0,1-37.61,9.83,110.27,110.27,0,0,1-13.11.16,119.57,119.57,0,0,1-13.07-1.34,120.26,120.26,0,0,1-25.34-7.14c-2-.82-4.06-1.72-6.07-2.67s-3.93-1.95-6-3.18l.32.18a114.6,114.6,0,0,1-19-10.91A96.39,96.39,0,0,1,59.39,447.6,87.57,87.57,0,0,1,47,429.22a82,82,0,0,1-4.31-10.28c-.59-1.78-1.14-3.57-1.6-5.39-.23-.92-.45-1.84-.64-2.78l-.26-1.42c-.09-.5-.16-.93-.23-1.56l.15.75a48.77,48.77,0,0,1-2-16.42,88.6,88.6,0,0,1,2.21-15.85,176,176,0,0,1,9.92-29.69A302.7,302.7,0,0,1,64,318.74c5-9.05,10.24-17.89,15.76-26.57,2.76-4.34,5.57-8.65,8.5-12.89,1.46-2.12,2.93-4.23,4.43-6.33l2.3-3.16c.69-1,1.46-1.94,2.11-2.94,5.32-7.94,8.2-17.42,9.12-27.14a99.64,99.64,0,0,0-1.86-29.51,141.41,141.41,0,0,0-3.81-14.51,128.05,128.05,0,0,0-5.27-14l-4.55-10,8.3,7.05c1.26,1.07,2.77,2.18,4.24,3.2s3,2,4.58,2.95a97.53,97.53,0,0,0,30.56,11.79,93,93,0,0,0,22,1.61A99.7,99.7,0,0,0,182.31,194.59Z" transform="translate(-38.14 -9.97)"/><path class="cls-1" d="M220.46,352.94a69.36,69.36,0,0,1,4.31,5.78c1.36,2,2.63,4,3.85,6.09a123.34,123.34,0,0,1,6.58,12.85,113.26,113.26,0,0,1,5,13.62c.75,2.32,1.27,4.71,1.86,7.09.31,1.18.46,2.41.7,3.61s.48,2.41.6,3.65l.41,3.69c.15,1.22.14,2.51.21,3.77s0,2.52-.05,3.78l-.08,1.88c0,.63-.13,1.25-.2,1.87a65.58,65.58,0,0,1-3.28,14.51,72,72,0,0,1-6.24,13.26,60.63,60.63,0,0,1-4.12,6c-.74,1-1.54,1.89-2.32,2.8a34.45,34.45,0,0,1-2.59,2.54,97.67,97.67,0,0,0,5.48-13,112.67,112.67,0,0,0,3.73-13.3,84.61,84.61,0,0,0,1.78-13.4l.08-1.67v-1.66a30.6,30.6,0,0,0-.09-3.32c-.09-1.1-.07-2.18-.23-3.31l-.42-3.36a135,135,0,0,0-2.54-13.46c-1-4.49-2.3-8.94-3.61-13.41C226.66,370.89,223.59,362,220.46,352.94Z" transform="translate(-38.14 -9.97)"/><path class="cls-1" d="M268,28.15c1-.68,2-1.27,3-1.89s2.06-1.17,3.11-1.72c2.08-1.13,4.21-2.15,6.36-3.12a130.19,130.19,0,0,1,13.25-5.09,135.26,135.26,0,0,1,27.88-5.83c2.38-.2,4.77-.33,7.15-.49,2.39,0,4.79-.06,7.18,0s4.72.15,7.11.36a66.56,66.56,0,0,1,7.22.91A73.05,73.05,0,0,1,364,15.4c2.18.87,4.36,1.74,6.51,2.68S374.85,19.93,377,21c-4.73-.34-9.39-1-14-1.76a119.4,119.4,0,0,0-13.51-1.71c-4.42-.22-9-.07-13.57.08l-6.79.33c-2.26.19-4.52.34-6.78.56-9,.88-18.06,2.27-27.1,3.95S277.18,26.07,268,28.15Z" transform="translate(-38.14 -9.97)"/><path class="cls-1" d="M393.34,42.88A122.38,122.38,0,0,1,362.4,56.11l-4.1,1.07c-1.38.31-2.77.57-4.16.86l-2.08.43L350,58.8c-1.4.21-2.8.46-4.2.63a143.51,143.51,0,0,1-17,1.14A157.2,157.2,0,0,1,295,56.81a161.68,161.68,0,0,1-16.44-4.62q-4.05-1.36-8-3c-2.68-1.09-5.24-2.18-7.95-3.55L266.65,41c1.31,1.82,2.36,3.5,3.43,5.29s2,3.58,3,5.41A98.23,98.23,0,0,1,277.91,63a94.66,94.66,0,0,1,3.46,11.85l.35,1.51.27,1.52c.18,1,.39,2,.55,3.06.25,2,.59,4.1.7,6.17a84.92,84.92,0,0,1,.13,12.46,78.07,78.07,0,0,1-1.89,12.35,83.16,83.16,0,0,1-9.3,23.08,103.52,103.52,0,0,1-15.06,19.59L255,156.78c-.73.73-1.43,1.48-2.22,2.15L248.08,163c-.81.74-1.5,1.21-2.21,1.85s-1.42,1.24-2.13,1.87c-1.4,1.29-2.79,2.61-4.12,4-2.68,2.74-5.23,5.62-7.65,8.61s-4.66,6.12-6.77,9.33a116.7,116.7,0,0,0-10.57,20.4,101.1,101.1,0,0,0-6.69,45.14A112.92,112.92,0,0,0,212.1,277c1,3.76,2.37,7.39,3.63,11.08l4.2,11.15,16.56,44.68c1.39,3.71,2.82,7.4,4.32,11a108.31,108.31,0,0,0,5,10.69c3.83,6.89,8.26,13.53,12.44,20.28l-7.09-9.59c-2.37-3.19-4.67-6.44-6.81-9.83-4.28-6.81-7.5-14.17-10.7-21.45-6.36-14.59-12.37-29.28-18.54-43.92l-4.59-11c-1.43-3.79-3-7.53-4.13-11.44a118.59,118.59,0,0,1-5.07-23.88,107.35,107.35,0,0,1,6.28-48.43A121,121,0,0,1,234,165.24c1.42-1.48,2.91-2.91,4.42-4.32.76-.7,1.53-1.4,2.33-2.08s1.7-1.36,2.35-2l4.24-3.8c1.42-1.26,2.73-2.69,4.1-4a96,96,0,0,0,14-18,74.45,74.45,0,0,0,10.48-43.38c-.07-1.89-.35-3.78-.55-5.67-.13-.94-.3-1.88-.45-2.82l-.23-1.41-.3-1.4a85.64,85.64,0,0,0-3-11A97.23,97.23,0,0,0,267,54.67c-.83-1.73-1.69-3.45-2.62-5.12s-1.93-3.36-2.9-4.79l-7.37-10.88,11.46,6.2c2.25,1.21,4.8,2.4,7.29,3.49s5.05,2.12,7.63,3.07c5.15,1.91,10.41,3.54,15.73,4.94a153.08,153.08,0,0,0,32.63,5,143,143,0,0,0,16.56-.28,136.46,136.46,0,0,0,16.44-2.37c1.37-.24,2.7-.6,4.05-.93s2.71-.62,4-1c2.66-.81,5.35-1.55,8-2.54A131.7,131.7,0,0,0,393.34,42.88Z" transform="translate(-38.14 -9.97)"/><path class="cls-1" d="M384.77,91.49c.23,4.63.65,9.15,1.26,13.62s1.35,8.87,2.32,13.2a122.18,122.18,0,0,0,8.35,24.93c1,2,1.89,3.93,3,5.82l.77,1.44.84,1.4c.57.93,1.11,1.88,1.7,2.8a114.51,114.51,0,0,0,7.71,10.64,156.82,156.82,0,0,0,19.24,18.94,70.25,70.25,0,0,1-23.81-14.62c-1.67-1.67-3.43-3.29-4.95-5.13-.77-.9-1.6-1.76-2.31-2.72L396.71,159c-.73-1-1.34-2-2-3l-1-1.5-.91-1.54c-1.23-2.05-2.28-4.19-3.35-6.32a82.58,82.58,0,0,1-7.34-41.45,64.64,64.64,0,0,1,.94-6.94A46.15,46.15,0,0,1,384.77,91.49Z" transform="translate(-38.14 -9.97)"/><path class="cls-1" d="M371.53,312.43a51.24,51.24,0,0,1,6.13-5.05,75.67,75.67,0,0,1,6.71-4.3,89.92,89.92,0,0,1,14.57-6.63,93.81,93.81,0,0,1,31.72-5.34c2.71,0,5.4.19,8.1.36,2.67.34,5.37.57,8,1.11a94,94,0,0,1,43.13,19.85,217.31,217.31,0,0,0-29.38-9.66c-1.22-.34-2.47-.55-3.71-.81s-2.46-.57-3.71-.75l-3.73-.62c-1.24-.24-2.49-.33-3.74-.51a115.89,115.89,0,0,0-15-1,129,129,0,0,0-29.93,3.36A146.08,146.08,0,0,0,386,306.64,139.1,139.1,0,0,0,371.53,312.43Z" transform="translate(-38.14 -9.97)"/><path class="cls-1" d="M499.24,338.94a310.3,310.3,0,0,1-32.5,8.36,253,253,0,0,1-33.44,4.24l-4.22.22c-1.41.08-2.82.06-4.23.1l-4.24.06c-1.41,0-2.82-.05-4.24-.07-5.65-.08-11.31-.6-16.95-1.2a156.57,156.57,0,0,1-16.83-3c-2.79-.68-5.56-1.42-8.31-2.33-1.37-.45-2.74-.94-4.1-1.47-.69-.27-1.37-.54-2.05-.84s-1.32-.58-2.15-1l4.49-5.11c1,1.46,1.86,2.76,2.71,4.17s1.63,2.8,2.37,4.23a88.63,88.63,0,0,1,4,8.83,69.38,69.38,0,0,1,4.52,19A53.6,53.6,0,0,1,382,393a52.58,52.58,0,0,1-9.49,17.56A67.67,67.67,0,0,1,358,423.65l-2,1.35a23.91,23.91,0,0,1-2.06,1.3l-4.26,2.45a5.63,5.63,0,0,1-.56.31l-.5.25-1,.49-1.95,1.06c-1.3.72-2.59,1.48-3.86,2.25a104.3,104.3,0,0,0-14.4,10.6,75.67,75.67,0,0,0-12,13,49.53,49.53,0,0,0-7.59,15.47,16.6,16.6,0,0,0-.51,2.08l-.45,2.09-.25,2.13a18.8,18.8,0,0,0-.22,2.12l-.08,2.15c0,.35,0,.71,0,1.07l.06,1.07.12,2.15c0,.72.19,1.43.27,2.14l.32,2.15c.14.71.34,1.41.5,2.11l.51,2.12.7,2.08.71,2.08c.25.69.58,1.35.86,2,.6,1.36,1.15,2.7,1.86,4.1l8.05,16.73c2.68,5.57,5.36,11.15,8.09,16.7s5.4,11.11,8.24,16.59,5.74,10.92,8.86,16.25,6.38,10.59,9.7,15.82c-3.8-4.89-7.54-9.84-11.05-15s-6.88-10.36-10.05-15.7-6.25-10.73-9.28-16.14-5.95-10.87-8.9-16.32-5.89-10.9-8.76-16.38c-.74-1.33-1.43-2.83-2.13-4.28-.34-.74-.71-1.46-1-2.21l-.86-2.28-.86-2.3-.67-2.37c-.21-.79-.46-1.57-.64-2.37l-.46-2.44a45.56,45.56,0,0,1,.69-19.78,56.38,56.38,0,0,1,8.29-17.88c7.42-10.82,17.46-19.21,28.26-26,1.36-.84,2.73-1.66,4.13-2.45q1.05-.6,2.13-1.17l1.09-.57.54-.27c.11,0,.3-.17.45-.25l3.76-2.22a19.47,19.47,0,0,0,1.86-1.19l1.82-1.24a64.42,64.42,0,0,0,12.92-11.63,44.68,44.68,0,0,0,8.17-14.83,45.72,45.72,0,0,0,1.85-16.9,66.36,66.36,0,0,0-1.29-8.6,70.17,70.17,0,0,0-2.45-8.45,81.17,81.17,0,0,0-3.49-8.15c-.65-1.33-1.36-2.63-2.08-3.91s-1.53-2.59-2.26-3.66l-8.18-12,12.66,6.85c.41.23,1.07.54,1.63.8s1.2.53,1.81.79c1.23.5,2.48,1,3.75,1.43,2.54.88,5.12,1.7,7.74,2.42a150.81,150.81,0,0,0,16,3.43c5.42.78,10.88,1.43,16.38,1.75,1.37.09,2.75.21,4.12.28l4.14.13c1.38,0,2.75.12,4.13.11l4.15,0a290.31,290.31,0,0,0,33.15-2.32C477.35,343.3,488.3,341.2,499.24,338.94Z" transform="translate(-38.14 -9.97)"/><path class="cls-1" d="M499.24,352.94a51.08,51.08,0,0,0,0,15,46.79,46.79,0,0,0,4.19,13.84,47.72,47.72,0,0,0,8,11.67c.85.83,1.62,1.73,2.53,2.5l1.3,1.22c.44.39.91.76,1.36,1.14.9.78,1.86,1.5,2.82,2.2s1.95,1.38,2.94,2.06l3.17,2.16,3.22,2.24c1.06.76,2.08,1.6,3.12,2.4s2.08,1.59,3.07,2.46A98.92,98.92,0,0,1,546.18,423c.89,1,1.67,2.05,2.49,3.1s1.62,2.08,2.35,3.19c1.51,2.18,2.91,4.44,4.2,6.76a65.23,65.23,0,0,1,3.37,7.24c.51,1.24.92,2.52,1.33,3.8.19.66.38,1.29.53,2s.31,1.3.45,2.12l-.17-.52a8.55,8.55,0,0,1,.32,1c.08.31.14.6.22.9.12.59.23,1.18.31,1.76.17,1.16.26,2.31.32,3.46a43.73,43.73,0,0,1-.28,6.79,49.71,49.71,0,0,1-1.22,6.57,54.31,54.31,0,0,1-2,6.31l.23-3.27.13-3.26c0-2.16,0-4.3-.15-6.42a49,49,0,0,0-.82-6.24c-.21-1-.44-2-.73-3-.14-.49-.31-.95-.47-1.41-.09-.22-.17-.46-.26-.66a4.17,4.17,0,0,0-.24-.53l-.17-.53c-.13-.41-.34-1-.55-1.55s-.47-1.09-.68-1.64c-.49-1.09-1-2.18-1.56-3.24a69.18,69.18,0,0,0-3.69-6.25c-1.34-2-2.75-4-4.28-5.88-.72-1-1.52-1.9-2.31-2.82s-1.56-1.86-2.43-2.73l-2.5-2.66-2.64-2.54L534,421.53l-1.38-1.21-2.76-2.42c-1.91-1.53-3.82-3.08-5.76-4.58l-3-2.14L518,409a56.06,56.06,0,0,1-6.28-5.06,52.73,52.73,0,0,1-5.57-5.9,47.19,47.19,0,0,1-7.89-14.14,43.94,43.94,0,0,1-2.39-15.76,43,43,0,0,1,1-7.79A33.88,33.88,0,0,1,499.24,352.94Z" transform="translate(-38.14 -9.97)"/></svg>